<?xml version="1.0" encoding="utf-8"?>
<!-- Generator: Adobe Illustrator 28.2.0, SVG Export Plug-In . SVG Version: 6.00 Build 0)  -->
<svg version="1.1" id="Layer_1" xmlns="http://www.w3.org/2000/svg" xmlns:xlink="http://www.w3.org/1999/xlink" x="0px" y="0px"
	 viewBox="0 0 512 512" style="enable-background:new 0 0 512 512;" xml:space="preserve">
<style type="text/css">
	.st0{fill:#E32851;}
	.st1{fill:#FF932C;}
	.st2{fill:#0088D9;}
</style>
<g>
	<path class="st0" d="M152.53,217.26h22.22c0.64,0,1.15,0.52,1.15,1.15v71.94c0,0.64-0.52,1.15-1.15,1.15h-22.22
		c-0.64,0-1.15-0.52-1.15-1.15v-71.94C151.37,217.78,151.89,217.26,152.53,217.26z"/>
	<path class="st1" d="M238.95,218.01l-14.62,38.95c-0.08,0.22-0.4,0.22-0.49,0L209.09,218c-0.17-0.45-0.6-0.75-1.08-0.75h-24.29
		c-0.82,0-1.38,0.83-1.07,1.59l29.22,71.94c0.18,0.44,0.6,0.72,1.07,0.72h21.37c0.47,0,0.89-0.28,1.07-0.72l29.35-71.94
		c0.31-0.76-0.25-1.59-1.07-1.59h-23.62C239.55,217.26,239.12,217.56,238.95,218.01L238.95,218.01z"/>
	<path class="st2" d="M471.93,216.13c-23.19,0-40.07,16.35-40.07,38.33s16.89,38.33,40.07,38.33c22.92,0,40.07-16.49,40.07-38.33
		C512,232.48,494.98,216.13,471.93,216.13z M471.93,271.89c-9.11,0-15.14-6.97-15.14-17.42s6.03-17.42,15.14-17.42
		c8.98,0,15.14,6.97,15.14,17.42C487.07,264.78,480.91,271.89,471.93,271.89z"/>
	<path class="st0" d="M143.25,216.9c-0.63-0.23-1.45-0.41-2.32-0.55c-1.42-0.22-16.49-1.92-24.88,9.33
		c-0.15,0.2-0.47,0.09-0.47-0.16v-5.9l0,0h0v-1.22c0-0.64-0.52-1.15-1.15-1.15H92.21c-0.64,0-1.15,0.52-1.15,1.15v71.94
		c0,0.64,0.52,1.15,1.15,1.15h22.22c0.64,0,1.15-0.52,1.15-1.15v-26.71c0-19.97,9.25-24.94,18.36-24.94c1.07,0,4.19-0.01,8.59,1.21
		c0.73,0.2,1.46-0.35,1.46-1.11v-20.82C143.99,217.5,143.7,217.07,143.25,216.9L143.25,216.9z"/>
	<path class="st0" d="M163.64,183.64c-7.75,0-14.03,6.05-14.03,13.52s6.28,13.52,14.03,13.52s14.03-6.05,14.03-13.52
		S171.39,183.64,163.64,183.64z"/>
	<path class="st1" d="M340.75,217.26h-22.22c-0.64,0-1.15,0.52-1.15,1.15v7.07c0,0.28-0.37,0.36-0.49,0.11
		c-8.02-16.81-55.55-13.54-55.55,28.78c0,39.57,40.6,46.62,55.58,30.06c0.16-0.18,0.45-0.07,0.45,0.17v5.75
		c0,0.64,0.52,1.15,1.15,1.15h22.22c0.64,0,1.15-0.52,1.15-1.15v-71.94C341.91,217.78,341.39,217.26,340.75,217.26L340.75,217.26z
		 M301.98,271.81c-9.79,0-16.61-6.82-16.61-17.35c0-10.53,6.82-17.5,16.61-17.5c9.94,0,16.61,7.12,16.61,17.5
		C318.59,264.84,311.92,271.81,301.98,271.81L301.98,271.81z"/>
	<path class="st2" d="M424.66,217.26h-22.22c-0.64,0-1.15,0.52-1.15,1.15v7.07c0,0.28-0.37,0.36-0.49,0.11
		c-8.06-17.02-52.32-12.75-52.32,26.64c0,38.62,40.34,41.8,52.37,30.57c0.16-0.15,0.43-0.03,0.43,0.19v3.48h0
		c-0.31,16.41-20.87,23.52-31.31,11.05c-0.37-0.45-1.02-0.55-1.51-0.23l-18.72,12.11c-0.56,0.36-0.69,1.12-0.3,1.66
		c23.89,32.65,75.99,16.04,76.38-24.52h0v-68.14C425.81,217.78,425.3,217.26,424.66,217.26L424.66,217.26z M388.02,267.92
		c-8.85,0-15.01-6.17-15.01-15.68c0-9.51,6.17-15.82,15.01-15.82c8.98,0,15.01,6.43,15.01,15.82
		C403.03,261.62,397,267.92,388.02,267.92z"/>
	<path class="st0" d="M83.33,250.87H61.08c-0.59,0-1.1,0.48-1.15,1.07c-0.72,9.13-8.35,16.32-17.67,16.32
		c-11.18,0-15.7-9.49-15.7-9.5c-1.93-3.64-2.03-7.15-2.03-7.91c0-0.09,0.05-0.18,0.13-0.22l6.37-3.52l0,0l40.23-22.25
		c0.61-0.34,0.99-0.98,0.99-1.68v-23.91c0-0.88-0.94-1.44-1.71-1.01L24.91,223.5c-0.17,0.1-0.39-0.03-0.39-0.23v-37.59
		c0-0.91-1.01-1.47-1.78-0.97L0.88,198.87C0.33,199.23,0,199.83,0,200.49v50.39c0.18,23.18,19.03,41.92,42.26,41.92
		c22.82,0,41.41-18.09,42.23-40.71C84.51,251.42,83.99,250.87,83.33,250.87L83.33,250.87z"/>
</g>
</svg>
